<mxfile host="app.diagrams.net" agent="Mozilla/5.0 (Windows NT 10.0; Win64; x64) AppleWebKit/537.36 (KHTML, like Gecko) Chrome/131.0.0.0 Safari/537.36" version="25.0.3">
  <diagram name="Page-1" id="Q2DNbcE5_mNWSyVNgNxQ">
    <mxGraphModel dx="955" dy="506" grid="1" gridSize="10" guides="1" tooltips="1" connect="1" arrows="1" fold="1" page="1" pageScale="1" pageWidth="827" pageHeight="1169" math="0" shadow="0">
      <root>
        <mxCell id="0" />
        <mxCell id="1" parent="0" />
        <mxCell id="1_Nyr7M1YenVsps4Nvxb-1" value="" style="rounded=0;whiteSpace=wrap;html=1;" parent="1" vertex="1">
          <mxGeometry x="120" y="40" width="280" height="880" as="geometry" />
        </mxCell>
        <mxCell id="1_Nyr7M1YenVsps4Nvxb-2" value="" style="rounded=0;whiteSpace=wrap;html=1;" parent="1" vertex="1">
          <mxGeometry x="400" y="40" width="360" height="880" as="geometry" />
        </mxCell>
        <mxCell id="1_Nyr7M1YenVsps4Nvxb-3" value="Customer" style="rounded=0;whiteSpace=wrap;html=1;" parent="1" vertex="1">
          <mxGeometry x="120" y="40" width="280" height="20" as="geometry" />
        </mxCell>
        <mxCell id="1_Nyr7M1YenVsps4Nvxb-4" value="Loan management software" style="rounded=0;whiteSpace=wrap;html=1;" parent="1" vertex="1">
          <mxGeometry x="400" y="40" width="360" height="20" as="geometry" />
        </mxCell>
        <mxCell id="1_Nyr7M1YenVsps4Nvxb-8" value="" style="ellipse;html=1;shape=startState;fillColor=#000000;strokeColor=#ff0000;" parent="1" vertex="1">
          <mxGeometry x="130" y="80" width="30" height="30" as="geometry" />
        </mxCell>
        <mxCell id="1_Nyr7M1YenVsps4Nvxb-9" value="" style="edgeStyle=orthogonalEdgeStyle;html=1;verticalAlign=bottom;endArrow=open;endSize=8;strokeColor=#ff0000;rounded=0;exitX=1;exitY=0.5;exitDx=0;exitDy=0;" parent="1" source="1_Nyr7M1YenVsps4Nvxb-8" edge="1">
          <mxGeometry relative="1" as="geometry">
            <mxPoint x="200" y="95" as="targetPoint" />
            <mxPoint x="160" y="95" as="sourcePoint" />
          </mxGeometry>
        </mxCell>
        <mxCell id="1_Nyr7M1YenVsps4Nvxb-23" value="" style="edgeStyle=orthogonalEdgeStyle;rounded=0;orthogonalLoop=1;jettySize=auto;html=1;entryX=0.5;entryY=0;entryDx=0;entryDy=0;exitX=0.5;exitY=1;exitDx=0;exitDy=0;" parent="1" source="24FyickqtNGdHLXfPpDt-2" target="1_Nyr7M1YenVsps4Nvxb-14" edge="1">
          <mxGeometry relative="1" as="geometry">
            <mxPoint x="245" y="215" as="targetPoint" />
            <mxPoint x="245" y="115" as="sourcePoint" />
          </mxGeometry>
        </mxCell>
        <mxCell id="1_Nyr7M1YenVsps4Nvxb-16" value="" style="edgeStyle=orthogonalEdgeStyle;rounded=0;orthogonalLoop=1;jettySize=auto;html=1;entryX=0;entryY=0.5;entryDx=0;entryDy=0;" parent="1" source="1_Nyr7M1YenVsps4Nvxb-14" target="24FyickqtNGdHLXfPpDt-16" edge="1">
          <mxGeometry relative="1" as="geometry">
            <mxPoint x="590.0000586483116" y="155.04347826086962" as="targetPoint" />
          </mxGeometry>
        </mxCell>
        <mxCell id="1_Nyr7M1YenVsps4Nvxb-27" value="" style="edgeStyle=orthogonalEdgeStyle;rounded=0;orthogonalLoop=1;jettySize=auto;html=1;entryX=0.5;entryY=0;entryDx=0;entryDy=0;exitX=0.5;exitY=1;exitDx=0;exitDy=0;" parent="1" source="1_Nyr7M1YenVsps4Nvxb-14" target="24FyickqtNGdHLXfPpDt-9" edge="1">
          <mxGeometry relative="1" as="geometry">
            <mxPoint x="245" y="200" as="targetPoint" />
          </mxGeometry>
        </mxCell>
        <mxCell id="1_Nyr7M1YenVsps4Nvxb-14" value="" style="rhombus;whiteSpace=wrap;html=1;" parent="1" vertex="1">
          <mxGeometry x="450" y="130" width="60" height="50" as="geometry" />
        </mxCell>
        <mxCell id="1_Nyr7M1YenVsps4Nvxb-20" value="" style="edgeStyle=orthogonalEdgeStyle;rounded=0;orthogonalLoop=1;jettySize=auto;html=1;exitX=1;exitY=0.5;exitDx=0;exitDy=0;" parent="1" source="24FyickqtNGdHLXfPpDt-16" target="1_Nyr7M1YenVsps4Nvxb-19" edge="1">
          <mxGeometry relative="1" as="geometry">
            <mxPoint x="659.9999413516884" y="155.04347826086962" as="sourcePoint" />
          </mxGeometry>
        </mxCell>
        <mxCell id="1_Nyr7M1YenVsps4Nvxb-19" value="" style="ellipse;html=1;shape=endState;fillColor=#000000;strokeColor=#ff0000;" parent="1" vertex="1">
          <mxGeometry x="710" y="140" width="30" height="30" as="geometry" />
        </mxCell>
        <mxCell id="1_Nyr7M1YenVsps4Nvxb-40" value="" style="edgeStyle=orthogonalEdgeStyle;rounded=0;orthogonalLoop=1;jettySize=auto;html=1;exitX=0.5;exitY=1;exitDx=0;exitDy=0;" parent="1" source="24FyickqtNGdHLXfPpDt-9" target="1_Nyr7M1YenVsps4Nvxb-31" edge="1">
          <mxGeometry relative="1" as="geometry">
            <mxPoint x="245" y="340" as="targetPoint" />
            <mxPoint x="245" y="240" as="sourcePoint" />
          </mxGeometry>
        </mxCell>
        <mxCell id="1_Nyr7M1YenVsps4Nvxb-29" value="[ Make user ]" style="text;html=1;align=center;verticalAlign=middle;whiteSpace=wrap;rounded=0;" parent="1" vertex="1">
          <mxGeometry x="500" y="120" width="80" height="30" as="geometry" />
        </mxCell>
        <mxCell id="1_Nyr7M1YenVsps4Nvxb-37" value="" style="edgeStyle=orthogonalEdgeStyle;rounded=0;orthogonalLoop=1;jettySize=auto;html=1;entryX=0;entryY=0.5;entryDx=0;entryDy=0;" parent="1" source="1_Nyr7M1YenVsps4Nvxb-31" target="24FyickqtNGdHLXfPpDt-20" edge="1">
          <mxGeometry relative="1" as="geometry">
            <mxPoint x="580.0000586483116" y="275.0434782608696" as="targetPoint" />
            <Array as="points" />
          </mxGeometry>
        </mxCell>
        <mxCell id="24FyickqtNGdHLXfPpDt-11" value="" style="edgeStyle=orthogonalEdgeStyle;rounded=0;orthogonalLoop=1;jettySize=auto;html=1;entryX=0.5;entryY=0;entryDx=0;entryDy=0;exitX=0.5;exitY=1;exitDx=0;exitDy=0;" edge="1" parent="1" source="1_Nyr7M1YenVsps4Nvxb-31" target="24FyickqtNGdHLXfPpDt-8">
          <mxGeometry relative="1" as="geometry" />
        </mxCell>
        <mxCell id="1_Nyr7M1YenVsps4Nvxb-31" value="" style="rhombus;whiteSpace=wrap;html=1;" parent="1" vertex="1">
          <mxGeometry x="450" y="250" width="60" height="50" as="geometry" />
        </mxCell>
        <mxCell id="1_Nyr7M1YenVsps4Nvxb-36" value="" style="edgeStyle=orthogonalEdgeStyle;rounded=0;orthogonalLoop=1;jettySize=auto;html=1;exitX=1;exitY=0.5;exitDx=0;exitDy=0;" parent="1" source="24FyickqtNGdHLXfPpDt-20" target="1_Nyr7M1YenVsps4Nvxb-35" edge="1">
          <mxGeometry relative="1" as="geometry">
            <mxPoint x="649.9999413516884" y="275.0434782608696" as="sourcePoint" />
          </mxGeometry>
        </mxCell>
        <mxCell id="1_Nyr7M1YenVsps4Nvxb-35" value="" style="ellipse;html=1;shape=endState;fillColor=#000000;strokeColor=#ff0000;" parent="1" vertex="1">
          <mxGeometry x="710" y="260" width="30" height="30" as="geometry" />
        </mxCell>
        <mxCell id="1_Nyr7M1YenVsps4Nvxb-38" value="[ Fetch data ]" style="text;html=1;align=center;verticalAlign=middle;whiteSpace=wrap;rounded=0;" parent="1" vertex="1">
          <mxGeometry x="500" y="240" width="80" height="30" as="geometry" />
        </mxCell>
        <mxCell id="1_Nyr7M1YenVsps4Nvxb-50" value="" style="edgeStyle=orthogonalEdgeStyle;rounded=0;orthogonalLoop=1;jettySize=auto;html=1;exitX=0.5;exitY=1;exitDx=0;exitDy=0;" parent="1" source="24FyickqtNGdHLXfPpDt-8" target="1_Nyr7M1YenVsps4Nvxb-42" edge="1">
          <mxGeometry relative="1" as="geometry">
            <mxPoint x="245" y="450" as="targetPoint" />
            <mxPoint x="245" y="350" as="sourcePoint" />
          </mxGeometry>
        </mxCell>
        <mxCell id="1_Nyr7M1YenVsps4Nvxb-46" value="" style="edgeStyle=orthogonalEdgeStyle;rounded=0;orthogonalLoop=1;jettySize=auto;html=1;entryX=0;entryY=0.5;entryDx=0;entryDy=0;" parent="1" source="1_Nyr7M1YenVsps4Nvxb-42" target="24FyickqtNGdHLXfPpDt-19" edge="1">
          <mxGeometry relative="1" as="geometry">
            <mxPoint x="590.0000586483116" y="395.0434782608696" as="targetPoint" />
          </mxGeometry>
        </mxCell>
        <mxCell id="24FyickqtNGdHLXfPpDt-13" value="" style="edgeStyle=orthogonalEdgeStyle;rounded=0;orthogonalLoop=1;jettySize=auto;html=1;entryX=0.5;entryY=0;entryDx=0;entryDy=0;exitX=0.5;exitY=1;exitDx=0;exitDy=0;" edge="1" parent="1" source="1_Nyr7M1YenVsps4Nvxb-42" target="24FyickqtNGdHLXfPpDt-7">
          <mxGeometry relative="1" as="geometry" />
        </mxCell>
        <mxCell id="1_Nyr7M1YenVsps4Nvxb-42" value="" style="rhombus;whiteSpace=wrap;html=1;" parent="1" vertex="1">
          <mxGeometry x="450" y="370" width="60" height="50" as="geometry" />
        </mxCell>
        <mxCell id="1_Nyr7M1YenVsps4Nvxb-47" value="" style="edgeStyle=orthogonalEdgeStyle;rounded=0;orthogonalLoop=1;jettySize=auto;html=1;exitX=1;exitY=0.5;exitDx=0;exitDy=0;" parent="1" source="24FyickqtNGdHLXfPpDt-19" target="1_Nyr7M1YenVsps4Nvxb-45" edge="1">
          <mxGeometry relative="1" as="geometry">
            <mxPoint x="659.9999413516884" y="395.0434782608696" as="sourcePoint" />
          </mxGeometry>
        </mxCell>
        <mxCell id="1_Nyr7M1YenVsps4Nvxb-45" value="" style="ellipse;html=1;shape=endState;fillColor=#000000;strokeColor=#ff0000;" parent="1" vertex="1">
          <mxGeometry x="710" y="380" width="30" height="30" as="geometry" />
        </mxCell>
        <mxCell id="1_Nyr7M1YenVsps4Nvxb-48" value="[ Get loan types ]" style="text;html=1;align=center;verticalAlign=middle;whiteSpace=wrap;rounded=0;" parent="1" vertex="1">
          <mxGeometry x="495" y="360" width="100" height="30" as="geometry" />
        </mxCell>
        <mxCell id="1_Nyr7M1YenVsps4Nvxb-68" value="" style="edgeStyle=orthogonalEdgeStyle;rounded=0;orthogonalLoop=1;jettySize=auto;html=1;entryX=0.5;entryY=0;entryDx=0;entryDy=0;exitX=0.5;exitY=1;exitDx=0;exitDy=0;" parent="1" source="24FyickqtNGdHLXfPpDt-7" target="1_Nyr7M1YenVsps4Nvxb-57" edge="1">
          <mxGeometry relative="1" as="geometry">
            <mxPoint x="245" y="490" as="sourcePoint" />
          </mxGeometry>
        </mxCell>
        <mxCell id="1_Nyr7M1YenVsps4Nvxb-81" value="" style="edgeStyle=orthogonalEdgeStyle;rounded=0;orthogonalLoop=1;jettySize=auto;html=1;exitX=0.5;exitY=1;exitDx=0;exitDy=0;" parent="1" source="24FyickqtNGdHLXfPpDt-4" target="1_Nyr7M1YenVsps4Nvxb-80" edge="1">
          <mxGeometry relative="1" as="geometry">
            <mxPoint x="245" y="830" as="sourcePoint" />
          </mxGeometry>
        </mxCell>
        <mxCell id="1_Nyr7M1YenVsps4Nvxb-75" value="" style="edgeStyle=orthogonalEdgeStyle;rounded=0;orthogonalLoop=1;jettySize=auto;html=1;entryX=0.5;entryY=0;entryDx=0;entryDy=0;exitX=0.5;exitY=1;exitDx=0;exitDy=0;" parent="1" source="24FyickqtNGdHLXfPpDt-5" target="1_Nyr7M1YenVsps4Nvxb-56" edge="1">
          <mxGeometry relative="1" as="geometry">
            <mxPoint x="245" y="690" as="sourcePoint" />
          </mxGeometry>
        </mxCell>
        <mxCell id="1_Nyr7M1YenVsps4Nvxb-72" value="" style="edgeStyle=orthogonalEdgeStyle;rounded=0;orthogonalLoop=1;jettySize=auto;html=1;exitX=0.5;exitY=1;exitDx=0;exitDy=0;exitPerimeter=0;entryX=0.5;entryY=0;entryDx=0;entryDy=0;" parent="1" source="24FyickqtNGdHLXfPpDt-6" target="24FyickqtNGdHLXfPpDt-5" edge="1">
          <mxGeometry relative="1" as="geometry">
            <mxPoint x="245" y="625" as="sourcePoint" />
            <mxPoint x="245" y="650" as="targetPoint" />
          </mxGeometry>
        </mxCell>
        <mxCell id="1_Nyr7M1YenVsps4Nvxb-73" value="" style="edgeStyle=orthogonalEdgeStyle;rounded=0;orthogonalLoop=1;jettySize=auto;html=1;entryX=0;entryY=0.5;entryDx=0;entryDy=0;" parent="1" source="1_Nyr7M1YenVsps4Nvxb-56" target="24FyickqtNGdHLXfPpDt-17" edge="1">
          <mxGeometry relative="1" as="geometry">
            <mxPoint x="595" y="724.9999999999998" as="targetPoint" />
          </mxGeometry>
        </mxCell>
        <mxCell id="1_Nyr7M1YenVsps4Nvxb-77" value="" style="edgeStyle=orthogonalEdgeStyle;rounded=0;orthogonalLoop=1;jettySize=auto;html=1;exitX=0.5;exitY=1;exitDx=0;exitDy=0;entryX=0.5;entryY=0;entryDx=0;entryDy=0;" parent="1" source="1_Nyr7M1YenVsps4Nvxb-56" target="24FyickqtNGdHLXfPpDt-4" edge="1">
          <mxGeometry relative="1" as="geometry">
            <mxPoint x="245" y="790" as="targetPoint" />
          </mxGeometry>
        </mxCell>
        <mxCell id="1_Nyr7M1YenVsps4Nvxb-56" value="" style="rhombus;whiteSpace=wrap;html=1;" parent="1" vertex="1">
          <mxGeometry x="460" y="700" width="60" height="50" as="geometry" />
        </mxCell>
        <mxCell id="1_Nyr7M1YenVsps4Nvxb-62" value="" style="edgeStyle=orthogonalEdgeStyle;rounded=0;orthogonalLoop=1;jettySize=auto;html=1;entryX=0;entryY=0.5;entryDx=0;entryDy=0;" parent="1" source="1_Nyr7M1YenVsps4Nvxb-57" target="24FyickqtNGdHLXfPpDt-18" edge="1">
          <mxGeometry relative="1" as="geometry">
            <mxPoint x="590.0000586483116" y="525.0434782608697" as="targetPoint" />
          </mxGeometry>
        </mxCell>
        <mxCell id="1_Nyr7M1YenVsps4Nvxb-71" value="" style="edgeStyle=orthogonalEdgeStyle;rounded=0;orthogonalLoop=1;jettySize=auto;html=1;entryX=0.5;entryY=0;entryDx=0;entryDy=0;exitX=0.5;exitY=1;exitDx=0;exitDy=0;" parent="1" source="1_Nyr7M1YenVsps4Nvxb-57" target="24FyickqtNGdHLXfPpDt-6" edge="1">
          <mxGeometry relative="1" as="geometry">
            <mxPoint x="245" y="585" as="targetPoint" />
          </mxGeometry>
        </mxCell>
        <mxCell id="1_Nyr7M1YenVsps4Nvxb-57" value="" style="rhombus;whiteSpace=wrap;html=1;" parent="1" vertex="1">
          <mxGeometry x="460" y="500" width="60" height="50" as="geometry" />
        </mxCell>
        <mxCell id="1_Nyr7M1YenVsps4Nvxb-74" value="" style="edgeStyle=orthogonalEdgeStyle;rounded=0;orthogonalLoop=1;jettySize=auto;html=1;exitX=1;exitY=0.5;exitDx=0;exitDy=0;" parent="1" source="24FyickqtNGdHLXfPpDt-17" target="1_Nyr7M1YenVsps4Nvxb-61" edge="1">
          <mxGeometry relative="1" as="geometry">
            <mxPoint x="665" y="724.9999999999998" as="sourcePoint" />
          </mxGeometry>
        </mxCell>
        <mxCell id="1_Nyr7M1YenVsps4Nvxb-63" value="" style="edgeStyle=orthogonalEdgeStyle;rounded=0;orthogonalLoop=1;jettySize=auto;html=1;exitX=1;exitY=0.5;exitDx=0;exitDy=0;" parent="1" source="24FyickqtNGdHLXfPpDt-18" target="1_Nyr7M1YenVsps4Nvxb-60" edge="1">
          <mxGeometry relative="1" as="geometry">
            <mxPoint x="659.9999413516884" y="525.0434782608697" as="sourcePoint" />
          </mxGeometry>
        </mxCell>
        <mxCell id="1_Nyr7M1YenVsps4Nvxb-60" value="" style="ellipse;html=1;shape=endState;fillColor=#000000;strokeColor=#ff0000;" parent="1" vertex="1">
          <mxGeometry x="710" y="510" width="30" height="30" as="geometry" />
        </mxCell>
        <mxCell id="1_Nyr7M1YenVsps4Nvxb-61" value="" style="ellipse;html=1;shape=endState;fillColor=#000000;strokeColor=#ff0000;" parent="1" vertex="1">
          <mxGeometry x="710" y="710" width="30" height="30" as="geometry" />
        </mxCell>
        <mxCell id="1_Nyr7M1YenVsps4Nvxb-64" value="[ Take details ]" style="text;html=1;align=center;verticalAlign=middle;whiteSpace=wrap;rounded=0;" parent="1" vertex="1">
          <mxGeometry x="505" y="490" width="90" height="30" as="geometry" />
        </mxCell>
        <mxCell id="1_Nyr7M1YenVsps4Nvxb-65" value="[ Give details ]" style="text;html=1;align=center;verticalAlign=middle;whiteSpace=wrap;rounded=0;" parent="1" vertex="1">
          <mxGeometry x="510" y="530" width="80" height="30" as="geometry" />
        </mxCell>
        <mxCell id="1_Nyr7M1YenVsps4Nvxb-66" value="[ Verify payment ]" style="text;html=1;align=center;verticalAlign=middle;whiteSpace=wrap;rounded=0;" parent="1" vertex="1">
          <mxGeometry x="510" y="680" width="100" height="30" as="geometry" />
        </mxCell>
        <mxCell id="1_Nyr7M1YenVsps4Nvxb-67" value="[ Give status ]" style="text;html=1;align=center;verticalAlign=middle;whiteSpace=wrap;rounded=0;" parent="1" vertex="1">
          <mxGeometry x="515" y="730" width="80" height="30" as="geometry" />
        </mxCell>
        <mxCell id="1_Nyr7M1YenVsps4Nvxb-80" value="" style="ellipse;html=1;shape=endState;fillColor=#000000;strokeColor=#ff0000;" parent="1" vertex="1">
          <mxGeometry x="230" y="870" width="30" height="30" as="geometry" />
        </mxCell>
        <mxCell id="24FyickqtNGdHLXfPpDt-2" value="Register" style="rounded=1;whiteSpace=wrap;html=1;arcSize=40;" vertex="1" parent="1">
          <mxGeometry x="200" y="75" width="100" height="40" as="geometry" />
        </mxCell>
        <mxCell id="24FyickqtNGdHLXfPpDt-4" value="View status / history" style="rounded=1;whiteSpace=wrap;html=1;arcSize=40;" vertex="1" parent="1">
          <mxGeometry x="195" y="790" width="100" height="40" as="geometry" />
        </mxCell>
        <mxCell id="24FyickqtNGdHLXfPpDt-5" value="make payments" style="rounded=1;whiteSpace=wrap;html=1;arcSize=40;" vertex="1" parent="1">
          <mxGeometry x="195" y="650" width="100" height="40" as="geometry" />
        </mxCell>
        <mxCell id="24FyickqtNGdHLXfPpDt-6" value="View details" style="rounded=1;whiteSpace=wrap;html=1;arcSize=40;" vertex="1" parent="1">
          <mxGeometry x="195" y="580" width="100" height="40" as="geometry" />
        </mxCell>
        <mxCell id="24FyickqtNGdHLXfPpDt-7" value="Fill form" style="rounded=1;whiteSpace=wrap;html=1;arcSize=40;" vertex="1" parent="1">
          <mxGeometry x="195" y="440" width="100" height="40" as="geometry" />
        </mxCell>
        <mxCell id="24FyickqtNGdHLXfPpDt-8" value="Apply for loan" style="rounded=1;whiteSpace=wrap;html=1;arcSize=40;" vertex="1" parent="1">
          <mxGeometry x="195" y="310" width="100" height="40" as="geometry" />
        </mxCell>
        <mxCell id="24FyickqtNGdHLXfPpDt-9" value="Login" style="rounded=1;whiteSpace=wrap;html=1;arcSize=40;" vertex="1" parent="1">
          <mxGeometry x="195" y="200" width="100" height="40" as="geometry" />
        </mxCell>
        <mxCell id="24FyickqtNGdHLXfPpDt-16" value="Alert: Account created" style="rounded=1;whiteSpace=wrap;html=1;arcSize=40;" vertex="1" parent="1">
          <mxGeometry x="582.5" y="130" width="85" height="50" as="geometry" />
        </mxCell>
        <mxCell id="24FyickqtNGdHLXfPpDt-17" value="Give status" style="rounded=1;whiteSpace=wrap;html=1;arcSize=40;" vertex="1" parent="1">
          <mxGeometry x="582.5" y="700" width="85" height="50" as="geometry" />
        </mxCell>
        <mxCell id="24FyickqtNGdHLXfPpDt-18" value="Send details" style="rounded=1;whiteSpace=wrap;html=1;arcSize=40;" vertex="1" parent="1">
          <mxGeometry x="595" y="500" width="85" height="50" as="geometry" />
        </mxCell>
        <mxCell id="24FyickqtNGdHLXfPpDt-19" value="Send relevant data" style="rounded=1;whiteSpace=wrap;html=1;arcSize=40;" vertex="1" parent="1">
          <mxGeometry x="595" y="370" width="85" height="50" as="geometry" />
        </mxCell>
        <mxCell id="24FyickqtNGdHLXfPpDt-20" value="Data found" style="rounded=1;whiteSpace=wrap;html=1;arcSize=40;" vertex="1" parent="1">
          <mxGeometry x="580" y="250" width="85" height="50" as="geometry" />
        </mxCell>
      </root>
    </mxGraphModel>
  </diagram>
</mxfile>
